Patient4_TMGait_0pt5_02_left_15_EMG.mot
version=1
nRows=30
nColumns=33
inDegrees=no
endheader
time	1LAddLong	2LGlutMax	3LGlutMed	4LIliopsoas	5LSemiMemb	6LBicFemLong	7LRecFem	8LVastMed	9LVastLat	10LGasMed	11LTibAnt	12lTibPost	13LPeroneusLong	14LSol	15LExtDigLong	16LFlexDigLong	17RAddLong	18RGlutMax	19RGlutMed	20RIliopsoas	21RSemiMemb	22RBicFemLong	23RRecFem	24RVastMed	25RVastLat	26RGasMed	27RTibAnt	28RTibPost	29RPeroneusLong	30RSol	31RExtDigLong	32RFlexDigLong
19.392	0.009308	0.88028	0.025482	0.004425	-0.040894	-0.41916	0.28671	0.010223	-0.065155	-0.18326	0.024719	0.002441	-0.036621	0.0737	-0.004578	0.010071	0.068359	0.16159	0.065308	0.055695	-0.032349	0.036316	0.58975	-0.15366	0.044861	0.000153	0.24277	0.000763	-0.036163	0.00885	-0.003815	0.005341
19.393	0.007935	0.80231	-0.14816	0.020752	0.056	-0.24231	0.28168	-0.012207	-0.086975	-0.1384	0.017395	0.026245	0.009308	-0.14801	-0.024109	0.003967	0.099182	0.20828	-0.038147	0.008545	-0.016174	0.005646	0.56229	-0.093384	0.049286	0.01297	0.06134	0.001526	-0.031433	0.000153	-0.007324	0.00885
19.394	0.016632	0.59708	-0.31921	-0.007019	0.054626	-0.021667	0.27191	-0.03891	-0.1062	-0.10651	0.028381	-0.033875	0.016174	-0.24765	-0.027313	0.004425	0.11398	0.27832	-0.08255	-0.012207	0.06546	-0.045624	0.54047	-0.040741	0.055542	0	0.12421	-0.001068	-0.1799	0.006866	-0.003662	0.001984
19.395	0.0383	0.38254	-0.30991	-0.005188	0.069122	0.010681	0.21866	-0.050659	0.009613	-0.082092	0.005798	0.003204	0.052185	-0.17441	-0.025024	0.004883	0.14542	0.28854	-0.033875	-0.023804	0.12589	-0.26016	0.5513	0.028229	0.070343	0.006104	-0.36285	-0.001984	-0.20538	-0.058289	-0.002747	0.010681
19.396	0.033417	0.25421	-0.15152	0.016785	0.033417	0.1442	0.19119	-0.018158	-0.025177	0.035858	0.012512	0.020294	0.073547	-0.15991	-0.008698	-0.027466	0.13123	0.25986	0.006104	-0.001678	0.093842	-0.30456	0.5098	0.040894	0.076447	0.001984	-0.79254	-0.000763	-0.16953	-0.12634	-0.001526	0.011749
19.397	0.034332	0.18829	-0.21149	-0.002289	-0.059662	-0.084534	0.1355	0.019379	-0.14358	0.12573	0.012207	0.027771	-0.009766	-0.12863	-0.004272	-1.6591	0.11871	0.20935	-0.024872	0.028229	0.059509	-0.17075	0.53558	0.050812	0.088501	0.011749	-0.46051	-0.001221	-0.17014	-0.20111	-0.006104	0.000153
19.398	0.03952	0.21851	-0.24658	0.029449	-0.084534	-0.15793	0.034485	0.034027	-0.17334	0.18448	0.015259	0.010529	-0.05249	0.082855	0.011597	0.88608	0.1004	0.2066	-0.092773	0.066528	0.030823	-0.043793	0.53696	0.039063	0.052185	0.002594	0.046692	-0.001526	-0.059967	-0.27069	-0.001526	0.006409
19.399	0.0383	0.28015	-0.20081	0.018005	0.052795	-0.03006	0.040283	0.032501	-0.14862	0.21515	0.016022	0.018311	-0.034332	0.003357	0.015259	0.52124	0.036163	0.13931	-0.035858	0.019836	0.032959	0.082855	0.48553	0.020142	0.045471	0.004272	-0.010071	-0.002136	-0.01709	-0.31052	-0.002747	0.007629
19.4	0.041809	0.3537	-0.20584	-0.00824	0.11215	-0.22217	0.079651	0.036316	-0.033417	0.17441	0.010986	-0.041351	-0.001678	-0.24658	0.0177	-0.062408	-0.016785	0.1503	-0.033112	0.007935	-0.020142	0.1004	0.457	0.029755	0.040131	0.000458	-0.016632	-0.000916	-0.029907	-0.26474	0.000153	-0.00946
19.401	0.033112	0.49194	-0.098724	-0.002289	0.049133	-0.25559	0.10544	0.029755	0.037384	0.11856	0.012817	0.11459	0.035553	-0.46188	0.012054	-0.1033	-0.055237	0.14999	0.097961	-0.014038	-0.04425	-0.002594	0.4422	0.011597	0.032043	-0.003815	0.001831	-0.005646	0.066071	-0.23895	-0.002441	-0.009308
19.402	0.031891	0.64392	0.065002	0.015106	-0.004883	-0.10895	0.13367	0.015717	0.076294	-0.001068	0.016937	0.13275	0.042267	-0.42602	-0.007935	0.58365	-0.058289	0.14908	0.15091	-0.008392	-0.054626	0.001221	0.47669	0.020294	0.012817	0.00351	-0.14587	-0.007477	0.12558	-0.12253	-0.002899	-0.00885
19.403	0.02533	0.81589	0.049133	0.029755	-0.032196	-0.10346	0.22736	-0.010071	0.13702	-0.045624	0.020905	-0.02121	0.014648	-0.11124	0.019684	0.07782	-0.036011	0.066223	0.089569	-0.1181	-0.005341	0.080566	0.4892	0.001221	-0.002289	0.002441	-0.46906	0.000305	0.16769	-0.063019	-0.002441	-0.004578
19.404	0.023193	0.9465	0.070496	0.022736	-0.005341	-0.10056	0.21637	-0.032959	0.10986	-0.092926	0.027924	-0.040131	-0.055695	0.071869	-0.001526	-1.0103	-0.027008	0.034637	0.11429	-0.20386	0.010071	0.10437	0.53436	-0.018768	-0.014496	0.010834	-0.35172	-0.004272	0.21805	-0.11215	0.000916	0.001526
19.405	0.026703	0.99381	0.079193	0.014648	-0.023346	-0.087128	0.12863	-0.033569	0.028687	-0.20004	0.017548	0.001984	0.001373	-0.09201	0.001831	0.40009	-0.016632	-0.01709	0.086823	-0.14969	-0.039673	0.13077	0.58258	-0.096893	-0.035095	0.008545	0.081787	-0.003662	0.11017	-0.089111	0.000153	0.003204
19.406	0.028839	0.94132	0.11749	-0.002136	0.039368	-0.068665	0.062866	-0.025635	0.006866	-0.34271	0.014801	0.036469	0.06546	-0.18356	-0.012512	-0.43793	0.006866	-0.016785	0.14084	-0.083923	-0.082397	0.097961	0.5751	-0.11581	-0.050354	0.014191	0.077057	0.000458	0.12787	-0.12695	-0.001526	0.004578
19.407	0.022278	0.93231	0.12528	0.002136	0.032196	-0.003357	-0.066376	-0.009003	0.05127	-0.32898	0.010071	0.036926	-0.00351	0.1532	-0.023956	0.26642	0.000153	-0.11673	0.10391	-0.03479	-0.069122	-0.006714	0.53528	-0.10101	-0.02655	0.012817	0.16312	-0.001831	0.079041	-0.1384	-0.001526	0.005646
19.408	0.015717	0.99258	-0.016937	0.00885	-0.025024	0.12726	-0.076904	0.002899	0.1178	-0.14389	0.012054	0.18814	-0.07019	0.39856	-0.00885	0.2449	-0.006561	-0.21347	-0.06424	0.040283	-0.04715	-0.074005	0.48935	-0.079498	-0.037994	0.005951	0.31967	-0.00061	0.010376	-0.11627	-0.003662	0.007324
19.409	0.002747	1.0347	-0.13855	-0.002899	-0.048981	0.1564	-0.098114	0.009003	0.21744	0.15198	-0.003662	0.10513	-0.032959	0.20935	-0.000763	0.12482	-0.020752	-0.17242	-0.06134	-0.014648	-0.00412	-0.091095	0.50522	-0.089569	-0.046082	-0.003204	0.23392	-0.010376	-0.066833	-0.063171	0.000305	0.004425
19.41	0.009766	1.1035	-0.28	0.009003	-0.013123	0.070496	-0.18082	0.007324	0.30518	0.26825	-0.007629	-0.10284	-0.053711	-0.046844	-0.00824	0.2562	-0.046844	-0.14099	0.081635	-0.059814	-0.016174	-0.10315	0.43366	-0.05249	-0.036469	-0.004883	0.46768	-0.006409	-0.13046	-0.048065	0.000458	0.00412
19.411	0.012665	1.0764	-0.19882	-0.002136	0.059814	0.009613	-0.28351	0.003204	0.36224	0.19073	0.002136	-0.053101	0.032501	-0.19974	-0.032654	0.11536	-0.059052	-0.17242	0.009308	-0.074158	-0.028381	-0.048523	0.36057	-0.037994	-0.030975	-0.003662	0.57541	-0.005035	-0.076752	-0.12085	-0.004883	-0.000916
19.412	0.008087	1.1169	-0.11307	0.006104	0.015411	0.071869	-0.34347	0.002136	0.27329	0.14221	0.004425	-0.090637	0.14282	-0.056915	-0.001221	0.013123	-0.059357	-0.19058	0.1445	-0.032654	-0.052032	-0.065002	0.42313	-0.04837	-0.026703	0.010529	-1.0957	-0.003967	0.12817	-0.088043	-0.00061	0.007019
19.413	0.02533	1.0063	-0.064392	0.009918	-0.065002	0.11581	-0.39078	0.011444	0.000763	-0.02655	0.006256	0.075684	0.13123	0.13077	-0.018768	0.059052	-0.045929	-0.26916	0.10468	0.061035	-0.066223	-0.042725	0.4277	-0.080261	-0.025482	0.006866	-2.0326	-0.003204	0.13153	0.035858	-0.003052	0.007935
19.414	0.019379	0.92117	-0.045471	0.003967	-0.091248	0.093384	-0.4715	0.010071	-0.13428	0.009918	0.012817	0.032959	0.085754	-0.19165	-0.026398	0.004883	-0.07431	-0.26596	0.072784	0.14008	-0.046082	-0.042877	0.41214	-0.040283	-0.019684	0.002747	-1.0605	-0.005798	0.036621	0.14694	-0.000458	0.003967
19.415	0.018616	0.94223	-0.012207	0.001526	-0.093231	0.13977	-0.52017	0.013275	-0.15945	0.1265	0.012817	0.15472	0.1561	-0.37857	-0.021667	-0.11047	-0.069885	-0.22949	0.087738	0.16251	-0.060577	-0.071259	0.38666	-0.12161	0.007477	0.002441	-0.097961	-0.005341	0.016632	0.12253	-0.000916	0.001373
19.416	0.012665	0.78568	-0.031281	0.016632	0.027618	0.19073	-0.57098	0.002289	-0.065155	0.011444	0.00885	0.25986	0.18112	-0.60577	-0.018005	-0.13825	-0.052185	-0.26825	0.22995	0.1709	-0.070648	-0.095825	0.37857	-0.10605	0.002899	0.009003	0.70938	-0.003052	0.047302	0.14893	-0.00351	-0.009308
19.417	-0.006561	0.69839	-0.05188	0.010986	0.12299	0.32944	-0.6279	-0.018311	0.033722	-0.020905	0.011597	-0.094757	0.037689	-0.48248	-0.015564	-0.094452	-0.043335	-0.29343	0.32791	0.085144	-0.040436	-0.11856	0.4042	-0.12024	0.001373	0.004578	0.65659	0.001831	0.019226	0.28076	-0.000763	-0.009766
19.418	-0.011444	0.62836	-0.087891	0.012665	0.030823	0.45807	-0.60715	-0.014343	0.028687	-0.10864	0.000458	-0.001984	-0.043335	-0.062714	-0.004883	-0.044861	-0.024414	-0.35599	0.30167	0.035706	0.002441	-0.1889	0.38315	-0.14511	-0.004425	0.004425	-0.31097	-0.005951	0.041656	0.26276	-0.000916	-0.011292
19.419	-0.033112	0.57983	-0.1294	0.009613	-0.079346	0.35004	-0.62927	0.002747	-0.013733	-0.10223	0.005188	-0.031128	-0.04715	0.078125	-0.002747	-0.036163	-0.007477	-0.41061	0.003204	0.00946	-0.005035	-0.061798	0.36118	-0.074463	0.023956	-0.002136	-0.72479	-0.003967	0.04303	0.25024	-0.001221	-0.005341
19.42	-0.013123	0.49362	-0.18021	-0.002594	-0.12314	0.21545	-0.67047	0.015717	-0.041809	-0.050507	0.009613	-0.066223	-0.047913	0.19134	-0.005035	-0.041199	-0.020599	-0.42023	-0.043793	-0.027924	-0.038452	0.20096	0.33814	-0.084839	0.001984	0.005035	-0.35339	-0.007477	0.072784	0.14221	-0.003052	-0.001526
19.421	-0.008087	0.41946	-0.12039	0.00351	-0.13947	0.14847	-0.63339	0.01236	-0.042419	0.001373	0.00412	-0.033112	0.014954	0.03006	0.009766	-0.029297	-0.042114	-0.41718	-0.052643	-0.071716	-0.062256	0.29037	0.32745	-0.12222	0.002441	-0.001068	0.3183	0.005188	0.026855	0.059509	0.000458	-0.005188
